<svg xmlns="http://www.w3.org/2000/svg" viewBox="0 0 512 512">
  <rect width="512" height="512" rx="96" fill="#111827"/>
  <path d="M256 64 400 128v108c0 92-57 174-144 212-87-38-144-120-144-212V128l144-64Z" fill="#ea580c"/>
  <path d="M256 104 360 150v84c0 68-39 130-104 162-65-32-104-94-104-162v-84l104-46Z" fill="#ffffff"/>
  <path d="M256 136 328 168v64c0 47-26 91-72 116-46-25-72-69-72-116v-64l72-32Z" fill="#ea580c"/>
  <path d="m232 254 79-79 29 29-108 108-60-60 29-29 31 31Z" fill="#ffffff"/>
</svg>
